<?xml version="1.0" encoding="UTF-8"?><svg id="a" xmlns="http://www.w3.org/2000/svg" viewBox="0 0 300 300"><polygon points="180.17 265.14 170.234 267.798 155.493 259.734 152.09 247.253 180.17 265.14" fill="#545bfe"/><path d="M197.269,271.837c11.94,4.115,23.473,6.093,37.266,4.988,2.416-.194,4.655,1.265,5.478,3.545.897,2.483,1.242,6.001-1.051,10.053-.978,1.729-2.845,2.762-4.831,2.707-6.286-.176-26.852-4.703-47.617-14.503" fill="#545bfe"/><path d="M186.87,279.561c.203.234.353.496.623.698,1.91,1.459,3.97,2.712,6.211,3.672,1.04.423,2.055.906,3.061,1.384,1.744.802,3.531,1.531,5.342,2.11,7.9,2.562,15.928,4.73,24.154,5.991,2.324.328,4.637.642,7.048.729.31.005.59.023.924.016.344-.008.686-.041,1.023-.105.674-.12,1.325-.353,1.92-.68,1.191-.629,2.173-1.728,2.696-2.878,1.106-2.166,1.71-4.658,1.485-7.117-.115-1.233-.384-2.411-.873-3.576-.521-1.188-1.431-2.196-2.556-2.834-.937-.537-2.027-.806-3.103-.765l-2.911.22c-1.919.107-3.842.175-5.764.1-3.612-.126-7.264-.12-10.817-.916-1.164-.281-2.351-.509-3.529-.759-1.809-.355-3.551-.962-5.366-1.3-.278-.057-.558-.12-.826-.209-1.847-.596-3.651-1.301-5.585-1.598-.831-.134-1.681-.361-2.461.026-.5.246-.554.517-.07.861.544.385,1.128.757,1.747,1.035,2.187.963,4.544,1.469,6.849,2.092,2.064.544,4.143,1.093,6.272,1.403.878.13,1.786.314,2.667.529,1.628.36,3.274.664,4.948.778.218.012.447-.001.652.052,2.024.548,4.139.38,6.209.507,1.595.076,3.219.207,4.822-.027.142-.02.296-.007.437.015.561.078,1.128.069,1.694.038l.848-.057c.218-.009.345-.017.518.008.705.094,1.387.366,1.935.84.273.235.509.517.689.834.095.17.156.301.239.525.086.234.155.473.221.712.624,2.421.106,4.881-1.005,7.256-.081.189-.147.309-.204.414-.07.109-.142.218-.226.318-.165.201-.358.381-.566.542-.373.287-.827.47-1.292.545-.232.037-.467.062-.703.053l-1.007-.04c-2.48-.098-5.113-.538-7.687-.995-2.595-.484-5.188-.968-7.785-1.452-1.836-.319-3.607-.966-5.394-1.509-2.413-.753-4.841-1.473-7.268-2.185-4.786-1.407-9.449-3.209-14.111-5l-2.869-1.196c-.196-.081-.42-.185-.608-.172-.363.026-.87-.11-1.041.205-.144.266.161.602.388.865Z" fill="#1c1f58"/><path d="M181.241,264.601c-.25-.094-.407-.182-.647-.262-1.62-.428-3.3-1.613-5.116-2.592-.839-.476-1.641-1.035-2.417-1.628-1.342-1.012-2.705-2.033-4.087-3.011-6.046-4.29-11.744-9.242-17.472-14.132-6.438-5.53-12.607-11.414-18.512-17.553-2.465-2.565-4.994-5.073-7.355-7.74-2.225-2.513-4.703-4.797-6.749-7.478-.673-.883-1.388-1.751-2.125-2.593-1.126-1.288-2.119-2.689-3.335-3.901-.187-.186-.372-.377-.534-.585-1.106-1.425-2.19-2.868-3.597-4.018-.605-.495-1.187-1.067-2.02-1.09-.533-.015-.717.192-.503.699.24.569.522,1.139.876,1.649,1.246,1.793,2.822,3.318,4.242,4.967,1.269,1.473,2.501,2.986,3.858,4.391.56.581,1.087,1.238,1.583,1.893.916,1.206,1.85,2.395,2.896,3.494.136.143.297.274.397.439.981,1.623,2.429,2.864,3.633,4.304.926,1.109,1.803,2.286,2.914,3.239.098.084.18.197.246.309.522.891,1.318,1.564,1.983,2.333,1.468,1.691,3.132,3.207,4.681,4.834,1.935,2.029,3.823,4.12,5.926,5.989.59.527,1.143,1.095,1.713,1.642,1.019.974,1.948,2.043,3,2.989,3.666,3.309,7.252,6.729,11.211,9.707,1.394,1.041,2.623,2.293,3.943,3.439,1.779,1.553,3.644,3.021,5.583,4.382,1.912,1.34,3.829,2.68,5.831,3.914,2.003,1.223,4.086,2.388,6.438,3.059.963.291,2.009.494,3.117.352.221-.012.496-.106.643-.225.293-.234.714-.604.533-.891-.161-.259-.54-.268-.779-.326Z" fill="#1c1f58"/><path d="M142.71,243.108s5.63,36.898,32.783,37.493c7.042.154,13.865-2.449,19.302-6.927,9.096-7.491,30.941-23.571,54.547-27.032,3.248-.476,4.662-4.372,2.486-6.83l-8.959-10.12c-.951-1.074-2.384-1.585-3.797-1.337-7.462,1.311-31.743,7.439-55.337,33.83-5.057,5.656-13.573,6.899-19.931,2.76-6.409-4.173-9.634-6.674-15.388-27.23" fill="#545bfe"/><path d="M148.247,239.667c.078.727.077,1.38.247,2.204.62,2.931,1.329,5.872,2.269,8.808.962,2.924,2.129,5.886,4.008,8.661,1.664,2.593,4.138,4.798,6.506,6.441.521.367.989.701,1.547,1.062.59.355,1.166.743,1.8,1.023,1.229.642,2.566,1.048,3.909,1.369,2.709.548,5.542.491,8.164-.273,2.877-.782,5.525-2.336,7.653-4.401,1.1-1.127,1.854-1.986,2.754-2.957l2.618-2.84,2.748-2.712,1.374-1.357,1.436-1.289,2.876-2.576,2.995-2.434c8.034-6.426,16.983-11.749,26.58-15.488,2.706-1.026,5.454-1.955,8.254-2.674.701-.165,1.401-.353,2.105-.5l1.057-.221c.325-.068.542-.087.823-.078.531.022,1.061.189,1.513.488.233.155.418.314.63.546l.744.816,5.947,6.534,1.485,1.636.742.818c.236.279.403.456.544.726.589.991.557,2.318-.067,3.324-.306.502-.746.917-1.267,1.185-.261.133-.539.239-.834.294-.273.07-.706.139-1.052.208-1.459.299-2.939.505-4.38.879-1.438.381-2.898.685-4.317,1.128-1.415.455-2.851.844-4.247,1.351-5.616,1.941-11.034,4.397-16.261,7.189-8.745,4.662-16.869,10.367-24.589,16.549-3.543,2.873-7.645,5.082-12.083,6.164-2.21.558-4.495.807-6.771.768-2.273-.111-4.555-.369-6.715-1.071-2.849-.879-5.582-2.227-8.015-3.994-3.736-2.714-6.626-6.384-9.166-10.26-.387-.6-.758-1.222-1.106-1.844-2.285-4.333-3.95-8.951-5.576-13.578-.707-1.996-1.266-4.144-2.147-5.56-.554-.918-.826-.788-.722.69.125,1.65.374,3.36.769,5.046,1.413,5.924,3.889,11.645,7.177,16.863,2.919,4.644,6.726,8.98,11.668,11.8,2.03,1.161,4.278,2.137,6.55,2.86,4.201,1.24,8.717,1.612,13.081.733.568-.105,1.147-.264,1.689-.364,2.681-.469,5.292-1.457,7.7-2.787,1.208-.661,2.372-1.403,3.479-2.218.564-.393,1.095-.834,1.635-1.251l1.507-1.188c3.118-2.401,6.411-4.63,9.602-6.99.282-.209.599-.415.904-.579,2.409-1.326,4.719-2.941,7.119-4.303,5.277-3.004,10.643-5.909,16.285-8.159,1.742-.751,3.551-1.303,5.329-1.95.898-.293,1.808-.541,2.711-.816.905-.268,1.805-.554,2.725-.752l2.743-.666c.914-.225,1.843-.352,2.763-.538l1.383-.262.753-.148c.357-.079.713-.147,1.057-.292,1.4-.499,2.588-1.551,3.272-2.833.785-1.43,1.001-3.16.546-4.755-.236-.785-.604-1.549-1.122-2.164l-.188-.237-.143-.163-.272-.305-.545-.608c-2.598-2.889-5.1-5.871-7.725-8.747-.223-.247-.709-.801-1.218-1.16-.511-.376-1.079-.675-1.679-.883-.602-.203-1.234-.315-1.87-.329-.629-.023-1.332.115-1.682.194-1.738.334-3.431.774-5.116,1.238-3.362.95-6.634,2.142-9.837,3.478-6.38,2.731-12.442,6.14-18.019,10.169-3.883,2.869-7.869,5.691-11.493,8.928-1.244,1.071-2.481,2.151-3.637,3.317-1.166,1.155-2.378,2.265-3.495,3.466l-3.325,3.623c-.574.629-1.053,1.151-1.586,1.677l-.836.741-.899.665c-2.427,1.66-5.39,2.57-8.365,2.524-1.486-.033-2.966-.297-4.371-.785-1.432-.491-2.668-1.189-4.016-2.098-1.317-.862-2.571-1.757-3.675-2.799-1.105-1.039-2.07-2.22-2.913-3.51-1.663-2.6-2.917-5.515-4.061-8.462-.939-2.454-1.738-4.971-2.545-7.484-.157-.516-.33-1.123-.533-1.501-.392-.731-.841-1.973-1.199-1.925-.302.041-.18,1.115-.095,1.93Z" fill="#1c1f58"/><path d="M71.261,23.858L23.539,121.919c-1.777,3.588-1.001,7.916,1.912,10.663l114.903,113.104c3.517,3.318,14.828-.056,15.759-4.801l27.295-158.872c.769-3.919-1.101-7.883-4.615-9.782L83.099,20.095c-4.3-2.323-9.669-.616-11.838,3.764Z" fill="#545bfe"/><path d="M178.793,72.23L83.099,20.095c-4.3-2.323-10.147.366-12.315,4.745h0c1.722-.218,3.527.076,5.175.967l95.694,52.136c3.514,1.899,5.384,5.863,4.615,9.782l-27.254,158.634c3.458-1.003,6.625-3.058,7.099-5.474l27.295-158.872c.769-3.919-1.101-7.883-4.615-9.782Z" fill="#fef9ed"/><path d="M77.158,23.302c-.104.566-.26,1.063-.304,1.722-.151,2.343-.199,4.696-.181,7.07.062,2.367.158,4.757.396,7.157.243,2.208.423,4.422.6,6.616.317,3.78.864,7.551,1.418,11.266,2.662,16.197,6.259,32.216,10.704,47.968l1.892,6.642.946,3.321,1.044,3.293,4.132,13.184,4.489,13.071c.756,2.176,1.462,4.369,2.25,6.534l2.439,6.467,4.098,10.796c1.403,3.584,2.962,7.106,4.38,10.686,1.358,3.367,2.8,6.699,4.218,10.042,1.494,3.31,3.055,6.589,4.438,9.952.918,2.211,1.891,4.44,2.893,6.646.766,1.686,1.492,3.388,2.233,5.085.807,1.665,1.631,3.323,2.522,4.952.274.501.547,1.009.79,1.522,1.668,3.521,3.32,7.06,5.356,10.379.875,1.427,1.735,2.969,2.832,3.765.702.51.908.309.546-.772-.406-1.216-.864-2.468-1.407-3.681-1.91-4.267-4.204-8.375-6.306-12.56-.92-1.878-1.907-3.725-2.761-5.64-.862-1.911-1.736-3.818-2.647-5.71-.753-1.563-1.466-3.228-2.139-4.855-1.24-3.001-2.5-5.987-3.895-8.935-.189-.381-.373-.782-.497-1.17-1.19-3.836-2.956-7.504-4.412-11.26-1.11-2.893-2.194-5.83-3.496-8.676-.109-.254-.197-.539-.265-.804-.541-2.107-1.425-4.148-2.144-6.204-.793-2.265-1.646-4.512-2.51-6.757-.842-2.253-1.793-4.472-2.508-6.774-1.871-5.716-3.707-11.458-5.725-17.13-.526-1.607-.996-3.241-1.492-4.86-.885-2.888-1.643-5.818-2.559-8.704-3.06-10.123-5.664-20.392-8.347-30.613-1.027-3.575-1.543-7.299-2.273-10.96-.455-2.483-1.024-4.948-1.439-7.438-.46-2.484-.92-4.967-1.379-7.446-1.772-9.781-3.104-19.66-4.06-29.552-.15-2.054-.352-4.11-.464-6.164-.026-.42-.045-.911-.149-1.234-.209-.627-.309-1.645-.67-1.682-.3-.033-.469.812-.585,1.448Z" fill="#1c1f58"/><path d="M27.017,127.379c.429.067.81.189,1.3.189,3.483.007,7.002-.159,10.547-.669,1.633-.232,3.279-.391,4.89-.649,2.786-.4,5.576-.884,8.308-1.454l4.477-.932c1.491-.315,2.964-.712,4.446-1.064l8.876-2.18,2.216-.55,2.198-.622,4.392-1.251c2.922-.854,5.859-1.647,8.755-2.579,13.056-4.125,25.991-8.607,38.856-13.305l8.014-3.066c2.671-1.023,5.309-2.131,7.988-3.137,1.259-.482,2.514-.977,3.76-1.495l3.714-1.608c2.475-1.076,4.975-2.091,7.494-3.071,1.664-.632,3.338-1.315,4.991-2.027,2.518-1.11,5.087-2.096,7.55-3.345.376-.198.757-.394,1.145-.561,2.667-1.135,5.341-2.28,7.787-3.85,1.049-.682,2.192-1.335,2.708-2.304.328-.618.142-.83-.67-.594-.918.262-1.865.563-2.769.951-3.198,1.343-6.267,3.008-9.421,4.472-2.84,1.258-5.684,2.525-8.518,3.828-1.168.546-2.418,1.042-3.643,1.504-2.25.869-4.52,1.683-6.74,2.651-.289.126-.58.281-.872.362-1.441.4-2.831.953-4.22,1.52-1.395.551-2.781,1.135-4.189,1.642-2.17.772-4.379,1.505-6.493,2.476-.187.085-.4.146-.6.19-1.585.348-3.091,1.033-4.621,1.558-1.687.578-3.354,1.217-5.019,1.866-1.678.616-3.357,1.233-5.049,1.816-2.115.719-4.232,1.439-6.35,2.159-2.121.71-4.254,1.383-6.353,2.157-1.181.431-2.388.805-3.58,1.205-1.064.357-2.138.683-3.212,1.012-1.077.317-2.163.608-3.233.955-3.743,1.188-7.495,2.365-11.259,3.499-3.783,1.062-7.557,2.153-11.3,3.354-.658.211-1.321.406-1.989.59-.672.166-1.349.315-2.027.463l-4.074.865c-1.831.403-3.66.826-5.485,1.266-1.823.447-3.643.907-5.477,1.287-3.605.799-7.226,1.542-10.849,2.284-1.807.401-3.633.68-5.456.986l-5.463.949-4.538.764c-.309.053-.671.105-.901.23-.444.242-1.188.439-1.173.798.013.303.648.391,1.128.466Z" fill="#1c1f58"/><path d="M46.239,76.877c.521-.777,1.032-1.426,1.569-2.364,3.818-6.675,7.53-13.508,11.014-20.642,1.605-3.286,3.268-6.544,4.913-9.768,2.838-5.558,5.617-11.181,8.272-16.768l1.088-2.289c.096-.212.173-.344.247-.477.08-.135.14-.282.232-.411.182-.259.351-.529.569-.759.407-.485.891-.906,1.435-1.238.533-.349,1.125-.611,1.744-.774.614-.181,1.259-.261,1.898-.239.641.002,1.278.12,1.887.324.31.089.601.226.892.364.306.142.727.382,1.085.568l2.236,1.193,17.893,9.542c11.945,6.33,23.889,12.659,35.83,18.986,6.723,3.55,13.45,7.101,20.179,10.654l10.083,5.354,5.039,2.684,2.519,1.344c.838.459,1.715.877,2.395,1.353,1.419.985,2.515,2.435,3.081,4.078.285.821.44,1.687.457,2.557.029.874-.139,1.717-.297,2.685l-1.873,11.273-3.809,22.543c-2.145,12.551-4.182,25.122-6.428,37.662-2.117,11.819-3.877,23.71-6.202,35.503-.765,3.882-1.499,7.834-2.196,11.777-1.065,6.029-2.294,12.009-3.238,18.075-.145.932-.295,1.873-.472,2.795-.606,3.162-1.219,6.325-1.779,9.494-.28,1.585-.547,3.172-.794,4.761l-.354,2.386c-.127.773-.183,1.693-.366,2.152-.365,1.01-1.352,1.947-2.333,2.696-.996.762-2.032,1.381-2.876,1.997-1.104.748-.936,1.038.953.544,1.047-.31,2.109-.716,3.121-1.317,1.006-.597,2.004-1.365,2.735-2.516.322-.473.564-1.15.679-1.705l.279-1.427.536-2.861c.336-1.913.673-3.827,1.01-5.743.654-3.835,1.309-7.673,1.962-11.503,1.212-6.833,2.486-13.674,3.605-20.554.462-2.843,1.023-5.793,1.59-8.659,1.046-5.283,2.068-10.566,2.96-15.908.116-.695.211-1.424.363-2.08,1.494-6.467,2.424-13.169,3.657-19.743.949-5.058,1.992-10.155,2.718-15.302.064-.455.165-.938.27-1.379.834-3.495,1.349-7.159,2.006-10.717,1.45-7.843,2.656-15.76,4.028-23.652.864-4.923,1.728-9.853,2.593-14.783l.637-3.7c.092-.561.253-1.392.278-2.152.032-.775-.005-1.556-.138-2.321-.476-3.075-2.333-5.878-4.922-7.551-.347-.223-.776-.465-1.079-.627l-.932-.496-1.862-1.001c-1.24-.67-2.48-1.34-3.718-2.009-4.423-2.376-8.79-4.872-13.235-7.227-15.531-8.225-30.989-16.658-46.602-24.657-5.485-2.81-10.899-5.892-16.338-8.87-3.687-1.996-7.376-3.994-11.065-5.992l-1.387-.742-.694-.371-.815-.384c-1.115-.473-2.315-.742-3.522-.785-2.413-.093-4.84.724-6.67,2.273-.905.757-1.667,1.675-2.249,2.695-.307.536-.513.994-.731,1.459l-.661,1.4-2.652,5.596-5.33,11.183c-3.54,7.462-7.08,14.923-10.617,22.378l-4.408,9.277c-.299.632-.658,1.366-.815,1.895-.303,1.022-.97,2.592-.677,2.806.247.181,1.011-.979,1.595-1.85Z" fill="#1c1f58"/></svg>